# xmcd
#
# Track frame offsets:
#	150
#	14451
#	31015
#	40814
#	57601
#	70153
#	81482
#	94025
#	105402
#	117043
#	128013
#	142739
#	155773
#	168419
#	177477
#	196053
#	210105
#	221743
#	238055
#	248909
#
# Disc length: 3475 seconds
#
# Revision: 1
# Processed by: cddbd v1.5.1PL2 Copyright (c) Steve Scherf et al.
# Submitted via: audiograbber 1.83.01
#
DISCID=0e0d9114
DTITLE=Various Artist - Barmusik Vol.6
DYEAR=2004
DGENRE=Jazz
TTITLE0=Bert Wollau Quartett - Just a Memory
TTITLE1=Bert Campbell+Rhythm Section - Cheek to Cheek
TTITLE2=Bert Wollau Quartett - Who?
TTITLE3=Bert Wollau Quartett - Lonesome
TTITLE4=Bert Wollau Quartett - Denke an mich
TTITLE5=Bert Wollau Quartett - Sweet georgia Brown
TTITLE6=Walter Pons Trio - Moon River
TTITLE7=Bert Wollau Quartett - I´ve got the Sun in the Morning
TTITLE8=Bert Wollau Quartett - Wild Cat Blues
TTITLE9=Bert Wollau Quartett - Somebody loves me
TTITLE10=Bert Campbell+Rhythm Section - Annie get your Gun
TTITLE11=Bert Wollau Quartett - Jalisco
TTITLE12=Bert Wollau Quartett - La Belle Rose
TTITLE13=Bert Wollau Quartett - Polonaise zur "Blauen Stunde"
TTITLE14=Walter Pons Trio - Tango Bolero
TTITLE15=Bert Wollau Quartett - Thes say That´s wonderful
TTITLE16=Bert Campbell+Rhythm Section - Elisabethan Serenade
TTITLE17=Bert Wollau Quartett - Schoene Sommernacht
TTITLE18=Bert Wollau Quartett - El Rancho Grande
TTITLE19=Bert Wollau Quartett - Danke schoen
EXTD=YEAR: 2004
EXTT0=
EXTT1=
EXTT2=
EXTT3=
EXTT4=
EXTT5=
EXTT6=
EXTT7=
EXTT8=
EXTT9=
EXTT10=
EXTT11=
EXTT12=
EXTT13=
EXTT14=
EXTT15=
EXTT16=
EXTT17=
EXTT18=
EXTT19=
PLAYORDER=
